<svg version="1.1" xmlns="http://www.w3.org/2000/svg" viewBox="0 0 696.0108210950823 548.5253479416162" width="1392.0216421901646" height="1097.0506958832325">
  <!-- svg-source:excalidraw -->
  
  <defs>
    <style class="style-fonts">
      @font-face {
        font-family: "Virgil";
        src: url("https://excalidraw.com/Virgil.woff2");
      }
      @font-face {
        font-family: "Cascadia";
        src: url("https://excalidraw.com/Cascadia.woff2");
      }
      @font-face {
        font-family: "Assistant";
        src: url("https://excalidraw.com/Assistant-Regular.woff2");
      }
    </style>
    
  </defs>
  <rect x="0" y="0" width="696.0108210950823" height="548.5253479416162" fill="#ffffff"></rect><g stroke-linecap="round" transform="translate(10 396.2457444770233) rotate(0 79.18359375 64.00195312500003)"><path d="M73.35 -0.75 C84.04 -2.59, 97.72 0.03, 108.3 3.4 C118.88 6.78, 128.93 12.56, 136.81 19.5 C144.7 26.44, 152.25 36.11, 155.61 45.04 C158.97 53.97, 158.77 63.79, 156.98 73.06 C155.19 82.34, 151.29 92.9, 144.87 100.69 C138.44 108.48, 128.41 115.32, 118.43 119.81 C108.45 124.31, 96.31 127.1, 84.98 127.67 C73.64 128.23, 61.02 126.65, 50.4 123.18 C39.79 119.72, 29.19 113.7, 21.29 106.87 C13.39 100.04, 6.55 90.92, 2.98 82.21 C-0.58 73.5, -1.98 63.64, -0.11 54.6 C1.77 45.56, 7.65 35.53, 14.22 27.96 C20.79 20.38, 28.78 13.74, 39.31 9.14 C49.84 4.53, 70.32 1.59, 77.38 0.33 C84.44 -0.94, 81.62 0.65, 81.66 1.55 M82.73 0.33 C93.61 -0.42, 106.32 2.67, 116.4 6.87 C126.48 11.08, 136.68 17.83, 143.21 25.58 C149.74 33.34, 153.37 44.22, 155.6 53.38 C157.82 62.54, 159.4 71.78, 156.58 80.55 C153.75 89.32, 146.4 99.01, 138.66 105.98 C130.91 112.95, 120.61 118.63, 110.11 122.38 C99.61 126.12, 87.23 128.89, 75.67 128.44 C64.11 127.99, 50.79 123.96, 40.75 119.68 C30.72 115.4, 22.16 109.97, 15.45 102.74 C8.75 95.52, 2.48 85.52, 0.54 76.32 C-1.41 67.12, 0.41 56.75, 3.76 47.54 C7.11 38.34, 13.12 27.98, 20.65 21.11 C28.18 14.24, 38.63 9.8, 48.93 6.34 C59.24 2.88, 76.68 1.19, 82.48 0.35 C88.29 -0.5, 83.86 0.24, 83.76 1.29" stroke="#1e1e1e" stroke-width="2" fill="none"></path></g><g transform="translate(68.32235016286131 447.99148253815235) rotate(0 20.86998748779297 12.5)"><text x="20.86998748779297" y="17.52" font-family="Virgil, Segoe UI Emoji" font-size="20px" fill="#1e1e1e" text-anchor="middle" style="white-space: pre;" direction="ltr" dominant-baseline="alphabetic">OBJ</text></g><g stroke-linecap="round" transform="translate(527.6436335950823 410.52144169161625) rotate(0 79.18359375 64.001953125)"><path d="M45.37 6.99 C54.8 2.51, 68.18 0.89, 79.63 0.9 C91.09 0.91, 103.94 3.26, 114.1 7.06 C124.25 10.86, 133.38 16.42, 140.57 23.71 C147.76 31.01, 154.6 41.68, 157.26 50.85 C159.91 60.02, 159.21 69.92, 156.51 78.75 C153.81 87.58, 148.36 96.68, 141.05 103.82 C133.74 110.97, 122.96 117.48, 112.64 121.61 C102.32 125.74, 90.57 128.73, 79.14 128.58 C67.71 128.43, 54.44 124.72, 44.06 120.71 C33.68 116.7, 23.83 111.53, 16.88 104.54 C9.93 97.56, 4.98 87.8, 2.35 78.8 C-0.28 69.79, -1.45 59.66, 1.09 50.5 C3.64 41.34, 9.74 31.42, 17.63 23.83 C25.53 16.24, 43 8.09, 48.46 4.95 C53.92 1.81, 49.97 3.9, 50.38 5 M117.19 7.15 C127.21 10.27, 135.18 18.08, 141.84 25.39 C148.5 32.69, 154.64 41.69, 157.14 51 C159.63 60.32, 159.5 72.31, 156.79 81.28 C154.08 90.24, 148.25 97.82, 140.86 104.77 C133.48 111.71, 123.39 119.04, 112.48 122.92 C101.58 126.81, 87.21 128.3, 75.45 128.06 C63.69 127.83, 52.11 125.72, 41.91 121.51 C31.71 117.29, 20.98 110.56, 14.26 102.79 C7.54 95.02, 3.66 84.11, 1.59 74.88 C-0.47 65.65, -1.06 56.03, 1.86 47.4 C4.79 38.77, 11.64 29.87, 19.15 23.1 C26.66 16.33, 36.71 10.5, 46.94 6.76 C57.16 3.02, 68.94 0.47, 80.51 0.65 C92.08 0.83, 110.82 6.59, 116.35 7.84 C121.88 9.1, 114.55 7.26, 113.69 8.18" stroke="#1e1e1e" stroke-width="2" fill="none"></path></g><g transform="translate(585.9659837579436 462.2671797527453) rotate(0 20.86998748779297 12.5)"><text x="20.86998748779297" y="17.52" font-family="Virgil, Segoe UI Emoji" font-size="20px" fill="#1e1e1e" text-anchor="middle" style="white-space: pre;" direction="ltr" dominant-baseline="alphabetic">OBJ</text></g><g stroke-linecap="round" transform="translate(251.59921734903787 10) rotate(0 101.64516788717657 100.30665168603342)"><path d="M32 0 C69 1.62, 107.12 -1.19, 171.29 0 M32 0 C75.65 -0.26, 118.2 -0.75, 171.29 0 M171.29 0 C194.31 -0.17, 204.6 12.56, 203.29 32 M171.29 0 C192.72 -0.47, 202.12 10.92, 203.29 32 M203.29 32 C201.82 79.35, 203.49 129.91, 203.29 168.61 M203.29 32 C203.95 83.18, 203.52 135.96, 203.29 168.61 M203.29 168.61 C203.45 189.78, 193.07 201.76, 171.29 200.61 M203.29 168.61 C205.2 189.05, 194.78 198.6, 171.29 200.61 M171.29 200.61 C116.33 201.22, 66.12 198.29, 32 200.61 M171.29 200.61 C133.54 202.04, 95.33 202.13, 32 200.61 M32 200.61 C9.54 198.67, 0.57 190.18, 0 168.61 M32 200.61 C9.8 202.13, 1.03 190.69, 0 168.61 M0 168.61 C-1.84 124.3, -0.17 80.44, 0 32 M0 168.61 C-0.54 130.27, -0.37 91.47, 0 32 M0 32 C-0.2 9.79, 12.15 1.68, 32 0 M0 32 C-0.66 11.18, 11.08 -2.27, 32 0" stroke="#1e1e1e" stroke-width="2" fill="none"></path></g><g transform="translate(322.2644047674644 15) rotate(0 30.97998046875 12.5)"><text x="30.97998046875" y="17.52" font-family="Virgil, Segoe UI Emoji" font-size="20px" fill="#1e1e1e" text-anchor="middle" style="white-space: pre;" direction="ltr" dominant-baseline="alphabetic">MIXIN</text></g><g stroke-linecap="round"><g transform="translate(219.8156482841099 386.31637574743684) rotate(0 -22.972977655838008 19.757385430454946)"><path d="M-0.73 -0.49 C-8.39 5.78, -37.22 32.07, -44.93 38.54" stroke="#1e1e1e" stroke-width="2.5" fill="none" stroke-dasharray="8 10"></path></g><g transform="translate(219.8156482841099 386.31637574743684) rotate(0 -22.972977655838008 19.757385430454946)"><path d="M-32.92 16.61 C-38.22 26.75, -43.69 31.89, -44.93 38.54" stroke="#1e1e1e" stroke-width="2.5" fill="none"></path></g><g transform="translate(219.8156482841099 386.31637574743684) rotate(0 -22.972977655838008 19.757385430454946)"><path d="M-21.64 29.46 C-31.41 34.54, -41.26 34.7, -44.93 38.54" stroke="#1e1e1e" stroke-width="2.5" fill="none"></path></g></g><mask></mask><g stroke-linecap="round"><g transform="translate(474.80876630295984 388.50113240158555) rotate(0 23.428004433281785 24.780012034691424)"><path d="M0.08 0 C7.73 7.99, 38.18 40.66, 46.09 49.03" stroke="#1e1e1e" stroke-width="2.5" fill="none" stroke-dasharray="8 10"></path></g><g transform="translate(474.80876630295984 388.50113240158555) rotate(0 23.428004433281785 24.780012034691424)"><path d="M23.78 37.74 C30.92 40.02, 37.08 45.99, 46.09 49.03" stroke="#1e1e1e" stroke-width="2.5" fill="none"></path></g><g transform="translate(474.80876630295984 388.50113240158555) rotate(0 23.428004433281785 24.780012034691424)"><path d="M36.26 26.04 C39.56 32.02, 41.79 41.68, 46.09 49.03" stroke="#1e1e1e" stroke-width="2.5" fill="none"></path></g></g><mask></mask><g stroke-linecap="round"><g transform="translate(311.78332821596473 194.00432430253719) rotate(0 -9.058448058959527 47.182643765374365)"><path d="M0 0 C-3.02 15.73, -15.1 78.64, -18.12 94.37" stroke="#1e1e1e" stroke-width="2.5" fill="none" stroke-dasharray="8 10"></path></g><g transform="translate(311.78332821596473 194.00432430253719) rotate(0 -9.058448058959527 47.182643765374365)"><path d="M-22.08 69.68 C-20.97 76.64, -19.85 83.6, -18.12 94.37" stroke="#1e1e1e" stroke-width="2.5" fill="none"></path></g><g transform="translate(311.78332821596473 194.00432430253719) rotate(0 -9.058448058959527 47.182643765374365)"><path d="M-5.29 72.91 C-8.91 78.96, -12.52 85.01, -18.12 94.37" stroke="#1e1e1e" stroke-width="2.5" fill="none"></path></g></g><mask></mask><g stroke-linecap="round"><g transform="translate(384.13971113588946 194.93150131021167) rotate(0 10.674968991617902 46.126357401077726)"><path d="M0 0 C3.56 15.38, 17.79 76.88, 21.35 92.25" stroke="#1e1e1e" stroke-width="2.5" fill="none" stroke-dasharray="8 10"></path></g><g transform="translate(384.13971113588946 194.93150131021167) rotate(0 10.674968991617902 46.126357401077726)"><path d="M7.72 71.29 C12.59 78.77, 17.45 86.25, 21.35 92.25" stroke="#1e1e1e" stroke-width="2.5" fill="none"></path></g><g transform="translate(384.13971113588946 194.93150131021167) rotate(0 10.674968991617902 46.126357401077726)"><path d="M24.38 67.44 C23.3 76.29, 22.22 85.15, 21.35 92.25" stroke="#1e1e1e" stroke-width="2.5" fill="none"></path></g></g><mask></mask><g stroke-linecap="round" transform="translate(376.0198056504655 301.05572787547555) rotate(0 51.27207611649277 42.5)"><path d="M21.25 0 C41.09 0, 60.93 0, 81.29 0 M81.29 0 C95.46 0, 102.54 7.08, 102.54 21.25 M102.54 21.25 C102.54 37.5, 102.54 53.75, 102.54 63.75 M102.54 63.75 C102.54 77.92, 95.46 85, 81.29 85 M81.29 85 C65.1 85, 48.9 85, 21.25 85 M21.25 85 C7.08 85, 0 77.92, 0 63.75 M0 63.75 C0 52.89, 0 42.03, 0 21.25 M0 21.25 C0 7.08, 7.08 0, 21.25 0" stroke="#1e1e1e" stroke-width="2.5" fill="none" stroke-dasharray="8 10"></path></g><g transform="translate(392.99191686217307 331.05572787547555) rotate(0 34.299964904785156 12.5)"><text x="34.299964904785156" y="17.52" font-family="Virgil, Segoe UI Emoji" font-size="20px" fill="#1e1e1e" text-anchor="middle" style="white-space: pre;" direction="ltr" dominant-baseline="alphabetic">states</text></g><g stroke-linecap="round" transform="translate(268.2610244454087 146.40969950784125) rotate(0 86.68469547357245 19.50775586985013)"><path d="M9.75 0 C63.79 0, 117.82 0, 163.62 0 M9.75 0 C49.62 0, 89.49 0, 163.62 0 M163.62 0 C170.12 0, 173.37 3.25, 173.37 9.75 M163.62 0 C170.12 0, 173.37 3.25, 173.37 9.75 M173.37 9.75 C173.37 14.16, 173.37 18.56, 173.37 29.26 M173.37 9.75 C173.37 15.99, 173.37 22.22, 173.37 29.26 M173.37 29.26 C173.37 35.76, 170.12 39.02, 163.62 39.02 M173.37 29.26 C173.37 35.76, 170.12 39.02, 163.62 39.02 M163.62 39.02 C130.61 39.02, 97.59 39.02, 9.75 39.02 M163.62 39.02 C106 39.02, 48.39 39.02, 9.75 39.02 M9.75 39.02 C3.25 39.02, 0 35.76, 0 29.26 M9.75 39.02 C3.25 39.02, 0 35.76, 0 29.26 M0 29.26 C0 22.25, 0 15.23, 0 9.75 M0 29.26 C0 23.81, 0 18.36, 0 9.75 M0 9.75 C0 3.25, 3.25 0, 9.75 0 M0 9.75 C0 3.25, 3.25 0, 9.75 0" stroke="#1e1e1e" stroke-width="2" fill="none"></path></g><g transform="translate(294.64577790237956 153.41745537769137) rotate(0 60.29994201660156 12.5)"><text x="60.29994201660156" y="17.52" font-family="Virgil, Segoe UI Emoji" font-size="20px" fill="#1e1e1e" text-anchor="middle" style="white-space: pre;" direction="ltr" dominant-baseline="alphabetic">mixin states</text></g><g stroke-linecap="round" transform="translate(266.56463134332796 54.37127999475895) rotate(0 86.33748051115839 27.18451334836918)"><path d="M13.59 0 C50.74 0, 87.89 0, 159.08 0 M13.59 0 C63.48 0, 113.37 0, 159.08 0 M159.08 0 C168.14 0, 172.67 4.53, 172.67 13.59 M159.08 0 C168.14 0, 172.67 4.53, 172.67 13.59 M172.67 13.59 C172.67 19.6, 172.67 25.6, 172.67 40.78 M172.67 13.59 C172.67 20.9, 172.67 28.2, 172.67 40.78 M172.67 40.78 C172.67 49.84, 168.14 54.37, 159.08 54.37 M172.67 40.78 C172.67 49.84, 168.14 54.37, 159.08 54.37 M159.08 54.37 C108.23 54.37, 57.38 54.37, 13.59 54.37 M159.08 54.37 C126.13 54.37, 93.18 54.37, 13.59 54.37 M13.59 54.37 C4.53 54.37, 0 49.84, 0 40.78 M13.59 54.37 C4.53 54.37, 0 49.84, 0 40.78 M0 40.78 C0 31.96, 0 23.15, 0 13.59 M0 40.78 C0 30.48, 0 20.19, 0 13.59 M0 13.59 C0 4.53, 4.53 0, 13.59 0 M0 13.59 C0 4.53, 4.53 0, 13.59 0" stroke="#1e1e1e" stroke-width="2" fill="none"></path></g><g transform="translate(308.0521591567324 69.05579334312814) rotate(0 44.849952697753906 12.5)"><text x="44.849952697753906" y="17.52" font-family="Virgil, Segoe UI Emoji" font-size="20px" fill="#1e1e1e" text-anchor="middle" style="white-space: pre;" direction="ltr" dominant-baseline="alphabetic">behaviors</text></g><g stroke-linecap="round" transform="translate(210.79198795211437 298.81061353433574) rotate(0 51.27207611649277 42.5)"><path d="M21.25 0 C42.92 0, 64.59 0, 81.29 0 M81.29 0 C95.46 0, 102.54 7.08, 102.54 21.25 M102.54 21.25 C102.54 31.59, 102.54 41.93, 102.54 63.75 M102.54 63.75 C102.54 77.92, 95.46 85, 81.29 85 M81.29 85 C63.6 85, 45.91 85, 21.25 85 M21.25 85 C7.08 85, 0 77.92, 0 63.75 M0 63.75 C0 52.12, 0 40.49, 0 21.25 M0 21.25 C0 7.08, 7.08 0, 21.25 0" stroke="#1e1e1e" stroke-width="2.5" fill="none" stroke-dasharray="8 10"></path></g><g transform="translate(227.76409916382192 328.81061353433574) rotate(0 34.299964904785156 12.5)"><text x="34.299964904785156" y="17.52" font-family="Virgil, Segoe UI Emoji" font-size="20px" fill="#1e1e1e" text-anchor="middle" style="white-space: pre;" direction="ltr" dominant-baseline="alphabetic">states</text></g><g stroke-linecap="round"><g transform="translate(272.11324804115077 106.4637504691695) rotate(0 -108.28338103469247 139.85593762072477)"><path d="M0 0 C-35.83 23.22, -178.91 92.67, -215 139.29 C-251.1 185.91, -216.31 256.31, -216.57 279.71 M0 0 C-35.83 23.22, -178.91 92.67, -215 139.29 C-251.1 185.91, -216.31 256.31, -216.57 279.71" stroke="#1e1e1e" stroke-width="2" fill="none"></path></g><g transform="translate(272.11324804115077 106.4637504691695) rotate(0 -108.28338103469247 139.85593762072477)"><path d="M-229.56 258.35 C-226.18 263.91, -222.8 269.47, -216.57 279.71 M-229.56 258.35 C-225.39 265.21, -221.21 272.07, -216.57 279.71" stroke="#1e1e1e" stroke-width="2" fill="none"></path></g><g transform="translate(272.11324804115077 106.4637504691695) rotate(0 -108.28338103469247 139.85593762072477)"><path d="M-212.79 255 C-213.77 261.43, -214.76 267.86, -216.57 279.71 M-212.79 255 C-214 262.94, -215.22 270.88, -216.57 279.71" stroke="#1e1e1e" stroke-width="2" fill="none"></path></g></g><mask></mask><g stroke-linecap="round"><g transform="translate(441.6455800797535 82.42126354778244) rotate(0 103.3572469315053 157.3290113471493)"><path d="M0 0 C29.41 28.28, 142 117.26, 176.45 169.7 C210.9 222.14, 201.67 290.5, 206.71 314.66 M0 0 C29.41 28.28, 142 117.26, 176.45 169.7 C210.9 222.14, 201.67 290.5, 206.71 314.66" stroke="#1e1e1e" stroke-width="2" fill="none"></path></g><g transform="translate(441.6455800797535 82.42126354778244) rotate(0 103.3572469315053 157.3290113471493)"><path d="M196.54 291.82 C199.87 299.29, 203.19 306.75, 206.71 314.66 M196.54 291.82 C200.5 300.72, 204.47 309.61, 206.71 314.66" stroke="#1e1e1e" stroke-width="2" fill="none"></path></g><g transform="translate(441.6455800797535 82.42126354778244) rotate(0 103.3572469315053 157.3290113471493)"><path d="M213.6 290.62 C211.35 298.48, 209.1 306.34, 206.71 314.66 M213.6 290.62 C210.92 299.99, 208.24 309.35, 206.71 314.66" stroke="#1e1e1e" stroke-width="2" fill="none"></path></g></g><mask></mask></svg>